# xmcd CD database file
#
# Track frame offsets:
#	150
#	6452
#	13204
#	18437
#	23960
#	31132
#	38664
#	45266
#	52018
#	59113
#	66723
#	70475
#	74627
#	78779
#	83331
#	87650
#	92302
#	96431
#	100183
#	104193
#	106951
#	110517
#	114394
#	121786
#	129569
#	138079
#	146589
#	153941
#	161893
#	169065
#	176597
#	184576
#	192920
#	200452
#	208344
#	215086
#	222063
#	228805
#	235782
#	242757
#	250022
#	255413
#	261073
#	267188
#	273528
#	279755
#	286095
#	292419
#	299000
#	306752
#
# Disc length: 4196 seconds
#
# Revision: 0
# Processed by: cddbd v1.5.2PL0 Copyright (c) Steve Scherf et al.
# Submitted via: CDex 1.50
#
DISCID=e9106232
DTITLE=Pierre Minvielle-Sebastia - Pratique du Piano Jazz
DYEAR=2002
DGENRE=Jazz
TTITLE0=Exercice sur les II-V-I (1)
TTITLE1=Exercice sur les II-V-I (2)
TTITLE2=Neuvième (1)
TTITLE3=Neuvième (2)
TTITLE4=Neuvième (3)
TTITLE5=Neuvième (4)
TTITLE6=Relation accord-mode (1)
TTITLE7=Relation accord-mode (2)
TTITLE8=Phrasés en ionien (1)
TTITLE9=Phrasés en ionien (2)
TTITLE10=Phrasés en dorien (1)
TTITLE11=Phrasés en dorien (2)
TTITLE12=Mode myxolidien (1)
TTITLE13=Mode myxolidien (2)
TTITLE14=Sur 3 accords (1)
TTITLE15=Sur 3 accords (2)
TTITLE16=Mode phrygien
TTITLE17=Mode lydien
TTITLE18=Mode éolien
TTITLE19=Mode locrien
TTITLE20=Phrasé modal (1)
TTITLE21=Phrasé modal (2)
TTITLE22=Phrasé cadencé (1)
TTITLE23=Phrasé cadencé (2)
TTITLE24=Mode commun (1)
TTITLE25=Mode commun (2)
TTITLE26=Les Voix (1)
TTITLE27=Les Voix (2)
TTITLE28=Anatoles (1)
TTITLE29=Anatoles (2)
TTITLE30=Blue-jazz (1)
TTITLE31=Blue-jazz (2)
TTITLE32=Les Standards (1)
TTITLE33=Les Standards (2)
TTITLE34=Les Block-chords (1)
TTITLE35=Les Block-chords (2)
TTITLE36=II-V-I en blocs (1)
TTITLE37=II-V-I en blocs (2)
TTITLE38=Latin-jazz (1)
TTITLE39=Latin-jazz (2)
TTITLE40=Be-bop (1)
TTITLE41=Be-bop (2)
TTITLE42=En 3/4 (1)
TTITLE43=En 3/4 (2)
TTITLE44=Solo en 3/4 (1)
TTITLE45=Solo en 3/4 (2)
TTITLE46=Jazz moderne (1)
TTITLE47=Jazz moderne (2)
TTITLE48=Ballade jazz (1)
TTITLE49=Ballade jazz (2)
EXTD=YEAR: 2002
EXTT0=
EXTT1=
EXTT2=
EXTT3=
EXTT4=
EXTT5=
EXTT6=
EXTT7=
EXTT8=
EXTT9=
EXTT10=
EXTT11=
EXTT12=
EXTT13=
EXTT14=
EXTT15=
EXTT16=
EXTT17=
EXTT18=
EXTT19=
EXTT20=
EXTT21=
EXTT22=
EXTT23=
EXTT24=
EXTT25=
EXTT26=
EXTT27=
EXTT28=
EXTT29=
EXTT30=
EXTT31=
EXTT32=
EXTT33=
EXTT34=
EXTT35=
EXTT36=
EXTT37=
EXTT38=
EXTT39=
EXTT40=
EXTT41=
EXTT42=
EXTT43=
EXTT44=
EXTT45=
EXTT46=
EXTT47=
EXTT48=
EXTT49=
PLAYORDER=
